# xmcd
#
# Track frame offsets:
# 150
# 19921
# 40983
# 57492
# 79968
# 118731
# 141715
# 163170
# 183107
# 196638
# 228889
# 257403
#
# Disc length: 3683 seconds
#
#
# Revision: 22
# Processed by: cddbd v1.5.1PL2 Copyright (c) Steve Scherf et al.
# Submitted via: FreeRIP 2.943 
#
DISCID=a30e610c
DTITLE=Eric Clapton and B.B. King - Riding With the King
DYEAR=2000
DGENRE=Blues
TTITLE0=Riding With the King
TTITLE1=Ten Long Years
TTITLE2=Key to the Highway
TTITLE3=Marry You
TTITLE4=Three O'Clock Blues
TTITLE5=Help The Poor
TTITLE6=I Wanna Be
TTITLE7=Worried Life Blues
TTITLE8=Days of Old
TTITLE9=When My Heart Beats Like a Hammer
TTITLE10=Hold On I'm Coming
TTITLE11=Come Rain or Come Shine
EXTD=YEAR: 2000 ID3G:   0
EXTT0=
EXTT1=
EXTT2=
EXTT3=
EXTT4=
EXTT5=
EXTT6=
EXTT7=
EXTT8=
EXTT9=
EXTT10=
EXTT11=
PLAYORDER=
